{"title":"Don Henley ft.Dolly Parton - When I Stop Dreaming (2015)","uid":12501866,"size":50086777,"categoryP":"video","categoryS":"music_videos","magnet":"?xt=urn:btih:7c03e03fac4b1660bea6ab79262504e884551665&amp;dn=Don+Henley+ft.Dolly+Parton+-+When+I+Stop+Dreaming+%282015%29&amp;tr=udp%3A%2F%2Ftracker.leechers-paradise.org%3A6969&amp;tr=udp%3A%2F%2Fzer0day.ch%3A1337&amp;tr=udp%3A%2F%2Fopen.demonii.com%3A1337&amp;tr=udp%3A%2F%2Ftracker.coppersurfer.tk%3A6969&amp;tr=udp%3A%2F%2Fexodus.desync.com%3A6969","seeders":0,"leechers":0,"uploader":"MeRaDil","files":1,"time":1443379552,"description":"DON HENLEY &amp; DOLLY PARTON - WHEN I STOP DREAMING\r\n\r\n \nhttp://gifyu.com/images/DonHenley.png\r\n \nhttps://thepiratebay.la/user/MeRaDil\r\n\r\n\r\nMEDIA INFO\r\nGeneral\r\nDon Henley ft. Dolly Parton - When I Stop Dreaming\r\nFormat                                   : MPEG-4\r\nFormat profile                           : Base Media\r\nCodec ID                                 : isom\r\nFile size                                : 47.8 MiB\r\nDuration                                 : 3mn 8s\r\nOverall bit rate                         : 2 130 Kbps\r\nMusicVid name                            : When I Stop Dreaming\r\nAlbum                                    : Cass County\r\nPerformer                                : Don Henley ft. Dolly Parton\r\nGenre                                    : Country\r\nContentType                              : Music Video\r\nRecorded date                            : 2015\r\nMake                                     : MeRaDil\r\nRelease date                             : USA - september 13 - 2015\r\n\r\nVideo\r\nID                                       : 1\r\nFormat                                   : AVC\r\nFormat/Info                              : Advanced Video Codec\r\nFormat profile                           :   \r\nFormat settings, CABAC                   : Yes\r\nFormat settings, ReFrames                : 3 frames\r\nCodec ID                                 : avc1\r\nCodec ID/Info                            : Advanced Video Coding\r\nDuration                                 : 3mn 8s\r\nBit rate                                 : 1 867 Kbps\r\nWidth                                    : 1 920 pixels\r\nHeight                                   : 1 080 pixels\r\nDisplay aspect ratio                     : 16:9\r\nFrame rate mode                          : Variable\r\nFrame rate                               : 23.976 fps\r\nMinimum frame rate                       : 23.974 fps\r\nMaximum frame rate                       : 23.981 fps\r\nColor space                              : YUV\r\nChroma subsampling                       : 4:2:0\r\nBit depth                                : 8 bits\r\nScan type                                : Progressive\r\nBits/(Pixel*Frame)                       : 0.038\r\nStream size                              : 41.9 MiB (88%)\r\n\r\nAudio\r\nID                                       : 2\r\nFormat                                   : AAC\r\nFormat/Info                              : Advanced Audio Codec\r\nFormat profile                           : LC\r\nCodec ID                                 : 40\r\nDuration                                 : 3mn 8s\r\nBit rate mode                            : Constant\r\nBit rate                                 : 256 Kbps\r\nChannel(s)                               : 2 channels\r\nChannel positions                        : Front: L R\r\nSampling rate                            : 44.1 KHz\r\nCompression mode                         : Lossy\r\nStream size                              : 5.74 MiB (12%)\r\n\r\nDon Henley * Cass County * Dolly Parton * Country * Promo","torrent":{"xt":"urn:btih:7c03e03fac4b1660bea6ab79262504e884551665","amp;dn":"Don+Henley+ft.Dolly+Parton+-+When+I+Stop+Dreaming+%282015%29","amp;tr":["udp%3A%2F%2Ftracker.leechers-paradise.org%3A6969","udp%3A%2F%2Fzer0day.ch%3A1337","udp%3A%2F%2Fopen.demonii.com%3A1337","udp%3A%2F%2Ftracker.coppersurfer.tk%3A6969","udp%3A%2F%2Fexodus.desync.com%3A6969"],"infoHash":"7c03e03fac4b1660bea6ab79262504e884551665","infoHashBuffer":{"type":"Buffer","data":[124,3,224,63,172,75,22,96,190,166,171,121,38,37,4,232,132,85,22,101]},"announce":[],"urlList":[]}}